<svg xmlns="http://www.w3.org/2000/svg" version="1.1" xmlns:xlink="http://www.w3.org/1999/xlink" xmlns:svgjs="http://svgjs.com/svgjs" width="262" height="253"><svg version="1.2" baseProfile="tiny-ps" xmlns="http://www.w3.org/2000/svg" viewBox="0 0 262 253" width="262" height="253">
	<title>LOGO BEYOU-svg</title>
	<defs>
		<clipPath clipPathUnits="userSpaceOnUse" id="SvgjsClipPath1007">
			<path d="m0 0h254v253.5h-254v-253.5z"></path>
		</clipPath>
	</defs>
	<style>
		tspan { white-space:pre }
		.s0 { fill: #000000 } 
	</style>
	<path id="SvgjsPath1006" class="s0" d="m16.84 154.74c-1.19-17.38 14.18-33.11 34.98-35.8c2.17-0.28 4.14 1.25 4.43 3.41c0.28 2.16-1.25 4.15-3.41 4.43c-16.67 2.16-29.02 14.21-28.12 27.43c0.15 2.18-1.5 4.06-3.67 4.21c-0.09 0.01-0.18 0.01-0.27 0.01c-2.06 0-3.79-1.6-3.94-3.68z"></path>
	<path id="SvgjsPath1005" class="s0" d="m72.09 120.88c0 0.26-0.03 0.52-0.08 0.77c-0.05 0.25-0.13 0.5-0.22 0.74c-0.1 0.24-0.22 0.47-0.37 0.68c-0.14 0.22-0.31 0.42-0.49 0.6c-0.18 0.18-0.38 0.35-0.6 0.49c-0.21 0.14-0.44 0.27-0.68 0.36c-0.24 0.1-0.48 0.18-0.74 0.23c-0.25 0.05-0.51 0.07-0.77 0.07c-0.26 0-0.52-0.02-0.77-0.07c-0.25-0.05-0.5-0.13-0.74-0.23c-0.24-0.1-0.46-0.22-0.68-0.36c-0.21-0.14-0.41-0.31-0.6-0.49c-0.18-0.18-0.35-0.38-0.49-0.6c-0.14-0.21-0.27-0.44-0.36-0.68c-0.1-0.24-0.18-0.48-0.23-0.74c-0.05-0.25-0.07-0.51-0.07-0.77c0-0.26 0.02-0.52 0.07-0.77c0.05-0.25 0.13-0.5 0.23-0.74c0.1-0.24 0.22-0.47 0.36-0.68c0.14-0.21 0.31-0.41 0.49-0.6c0.18-0.18 0.38-0.35 0.6-0.49c0.22-0.14 0.45-0.27 0.68-0.36c0.24-0.1 0.49-0.18 0.74-0.23c0.25-0.05 0.51-0.07 0.77-0.07c0.26 0 0.52 0.02 0.77 0.07c0.25 0.05 0.5 0.13 0.74 0.23c0.24 0.1 0.47 0.22 0.68 0.36c0.21 0.14 0.42 0.31 0.6 0.49c0.18 0.18 0.35 0.38 0.49 0.6c0.14 0.21 0.27 0.45 0.37 0.68c0.1 0.24 0.17 0.49 0.22 0.74c0.05 0.25 0.08 0.51 0.08 0.77z"></path>
	<g id="SvgjsG1004" clip-path="url(#cp1)">
		<g id="SvgjsG1003">
			<path id="SvgjsPath1002" fill-rule="evenodd" class="s0" d="m10.5 178.9c-23.77-30.68-0.07-68.93 38.39-74.18l48.53-8.79c-4.72-6.27-7.55-14.04-7.55-22.49c0-16.57 10.75-30.61 25.64-35.59c-0.02-12.18-6.93-18.25-10.75-20.66c-1.79 1.79-4.26 2.9-6.98 2.9c-5.45 0-9.88-4.43-9.88-9.88c0-5.45 4.43-9.88 9.88-9.88c5.26 0 9.53 4.14 9.82 9.33c6.38 3.47 15.12 11.95 15.8 26.46c1.32-0.14 2.66-0.22 4.01-0.22c1.36 0 2.69 0.08 4.01 0.22c0.68-14.51 9.42-22.99 15.8-26.46c0.29-5.19 4.57-9.33 9.82-9.33c5.45 0 9.88 4.43 9.88 9.88c0 5.45-4.43 9.88-9.88 9.88c-2.73 0-5.2-1.11-6.99-2.91c-3.85 2.41-10.73 8.47-10.75 20.67c14.89 4.98 25.64 19.02 25.64 35.59c0 8.45-2.83 16.22-7.55 22.49l48.53 8.79c38.46 5.24 62.16 43.5 38.39 74.18c-9.13 11.79-21.1 17.07-33.21 17.07c-11.58 0-23.28-4.87-32.76-13.47c-3.2 39.9-24.77 70.77-50.93 70.77c-26.16 0-47.73-30.87-50.93-70.77c-9.48 8.6-21.18 13.47-32.77 13.47c-12.11 0-24.07-5.28-33.2-17.07zm144.55-168.69c0 1.09 0.88 1.98 1.97 1.98c1.09 0 1.98-0.89 1.98-1.98c0-1.09-0.89-1.98-1.98-1.98c-1.09 0-1.97 0.89-1.97 1.98zm-55.31 0c0-1.09-0.88-1.98-1.97-1.98c-1.09 0-1.98 0.89-1.98 1.98c0 1.09 0.89 1.98 1.98 1.98c1.09 0 1.97-0.89 1.97-1.98zm63.74 202.16c-32.79-20.75-59.42-8.97-72.25-0.23c7.86 19.84 21.28 33.22 36.17 33.22c14.83 0 28.2-13.27 36.08-32.99zm6.67-27.41c-43.77-32.89-77.41-7.11-85.48 0.23c0.75 6.76 2.07 13.22 3.89 19.24c14.78-9.51 43.13-20.69 77.59 0.3c1.88-6.18 3.24-12.82 4-19.78zm0.67-10.69c-3.14-4.17-5.85-8.84-7.96-14c-2.23-5.44-4.64-10.91-7.08-16.26c-23.63-11.72-43.52-7.04-56.51-0.58c-2.53 5.52-5.04 11.2-7.34 16.84c-2.11 5.16-4.83 9.84-7.96 14c0.01 0.47 0.01 0.94 0.02 1.4c13.7-10.16 46.58-27.47 86.81 0.04c0.02-0.48 0.02-0.96 0.02-1.45zm-20.1-41.09c-6.12-12.85-11.8-24.11-14.64-31.05c-0.23-0.56-0.38-1.1-0.51-1.63c-2.65-0.89-5.38-1.38-8.17-1.38c-2.79 0-5.52 0.48-8.17 1.38c-0.13 0.52-0.28 1.06-0.51 1.63c-2.8 6.85-8.38 17.91-14.41 30.55c12.31-4.34 28.23-6.17 46.41 0.49zm-6.27-31.55c1.93 4.39 4.75 10.21 7.92 16.76c5.45 11.23 12.22 25.21 17.8 38.88c7.53 18.41 23.97 30.79 40.91 30.79c10.54 0 19.86-4.84 26.96-14c8.13-10.49 10.03-22.58 5.34-34.05c-5.83-14.28-20.96-25.05-38.55-27.45c-0.11-0.02-0.23-0.04-0.34-0.05l-60.05-10.87zm-46.68-28.18c0 8.14 3.3 15.51 8.64 20.86l5.48-0.99c0.55-0.07 1.07-0.11 1.56-0.11c0.75 0 1.41 0.11 2.03 0.26c3.82-1.44 7.81-2.23 11.92-2.23c4.11 0 8.1 0.79 11.92 2.23c0.62-0.15 1.29-0.26 2.03-0.26c0.5 0 1.02 0.04 1.56 0.11l5.48 0.99c5.33-5.36 8.64-12.72 8.64-20.86c0-16.34-13.29-29.64-29.63-29.64c-16.34 0-29.63 13.3-29.63 29.64zm-81.03 100.61c7.1 9.16 16.43 14 26.96 14c16.95 0 33.39-12.37 40.92-30.79c5.59-13.68 12.37-27.66 17.81-38.89c3.17-6.55 5.98-12.36 7.92-16.75l-60.05 10.87c-0.11 0.02-0.23 0.04-0.34 0.05c-17.59 2.4-32.72 13.17-38.55 27.45c-4.68 11.47-2.79 23.56 5.34 34.05z"></path>
		</g>
	</g>
	<path id="SvgjsPath1001" class="s0" d="m198.54 122.34c0.28-2.16 2.27-3.7 4.43-3.41c20.8 2.7 36.18 18.43 34.98 35.8c-0.14 2.09-1.88 3.68-3.94 3.68c-0.09 0-0.18 0-0.27-0.01c-2.18-0.15-3.82-2.03-3.67-4.21c0.91-13.22-11.45-25.27-28.12-27.43c-2.16-0.28-3.69-2.27-3.41-4.43z"></path>
	<path id="SvgjsPath1000" class="s0" d="m190.61 120.88c0 0.26-0.03 0.52-0.07 0.77c-0.05 0.25-0.13 0.5-0.23 0.74c-0.1 0.24-0.22 0.47-0.36 0.68c-0.14 0.22-0.31 0.42-0.49 0.6c-0.18 0.18-0.38 0.35-0.6 0.49c-0.21 0.14-0.44 0.27-0.68 0.36c-0.24 0.1-0.49 0.18-0.74 0.23c-0.25 0.05-0.51 0.07-0.77 0.07c-0.26 0-0.52-0.02-0.77-0.07c-0.25-0.05-0.5-0.13-0.74-0.23c-0.24-0.1-0.47-0.22-0.68-0.36c-0.22-0.14-0.42-0.31-0.6-0.49c-0.18-0.18-0.34-0.38-0.49-0.6c-0.14-0.21-0.27-0.44-0.37-0.68c-0.1-0.24-0.17-0.48-0.22-0.74c-0.05-0.25-0.08-0.51-0.08-0.77c0-0.26 0.03-0.52 0.08-0.77c0.05-0.25 0.13-0.5 0.22-0.74c0.1-0.24 0.22-0.47 0.37-0.68c0.14-0.21 0.3-0.41 0.49-0.6c0.18-0.18 0.38-0.35 0.6-0.49c0.21-0.14 0.44-0.27 0.68-0.36c0.24-0.1 0.48-0.18 0.74-0.23c0.25-0.05 0.51-0.07 0.77-0.07c0.26 0 0.52 0.02 0.77 0.07c0.25 0.05 0.5 0.13 0.74 0.23c0.24 0.1 0.46 0.22 0.68 0.36c0.22 0.14 0.42 0.31 0.6 0.49c0.18 0.18 0.35 0.38 0.49 0.6c0.14 0.21 0.27 0.45 0.36 0.68c0.1 0.24 0.18 0.49 0.23 0.74c0.05 0.25 0.07 0.51 0.07 0.77z"></path>
</svg><style>@media (prefers-color-scheme: light) { :root { filter: contrast(1) brightness(0.2); } }
</style></svg>